<?xml version="1.0" encoding="utf-8"?>
<!-- Generator: Adobe Illustrator 24.1.0, SVG Export Plug-In . SVG Version: 6.00 Build 0)  -->
<svg version="1.1" id="Layer_1" xmlns="http://www.w3.org/2000/svg" xmlns:xlink="http://www.w3.org/1999/xlink" x="0px" y="0px"
	 viewBox="0 0 1366 768" style="enable-background:new 0 0 1366 768;" xml:space="preserve">
<style type="text/css">
	.st0{fill:#4048AB;}
	.st1{fill:#FFFFFF;}
</style>
<g>
	<rect x="286.5" y="113.5" class="st0" width="849" height="542"/>
	<path d="M1135,114v541H287V114H1135 M1136,113H286v543h850V113L1136,113z"/>
</g>
<g>
	<circle class="st1" cx="706" cy="188.86" r="39.47"/>
</g>
<g>
	<circle class="st1" cx="491.89" cy="188.86" r="39.47"/>
</g>
<g>
	<circle class="st1" cx="598.44" cy="188.86" r="39.47"/>
</g>
<g>
	<circle class="st1" cx="385.72" cy="188.86" r="39.47"/>
</g>
<g>
	<circle class="st1" cx="816" cy="188.86" r="39.47"/>
</g>
<g>
	<circle class="st1" cx="1035.99" cy="188.86" r="39.47"/>
</g>
<g>
	<circle class="st1" cx="927.99" cy="188.86" r="39.47"/>
</g>
<g>
	<circle class="st1" cx="706" cy="294.17" r="39.47"/>
</g>
<g>
	<circle class="st1" cx="491.89" cy="294.17" r="39.47"/>
</g>
<g>
	<circle class="st1" cx="598.44" cy="294.17" r="39.47"/>
</g>
<g>
	<circle class="st1" cx="385.72" cy="294.17" r="39.47"/>
</g>
<g>
	<circle class="st1" cx="816" cy="294.17" r="39.47"/>
</g>
<g>
	<circle class="st1" cx="1035.99" cy="294.17" r="39.47"/>
</g>
<g>
	<circle class="st1" cx="927.99" cy="294.17" r="39.47"/>
</g>
<g>
	<circle class="st1" cx="706" cy="394.17" r="39.47"/>
</g>
<g>
	<circle class="st1" cx="491.89" cy="394.17" r="39.47"/>
</g>
<g>
	<circle class="st1" cx="598.44" cy="394.17" r="39.47"/>
</g>
<g>
	<circle class="st1" cx="385.72" cy="394.17" r="39.47"/>
</g>
<g>
	<circle class="st1" cx="816" cy="394.17" r="39.47"/>
</g>
<g>
	<circle class="st1" cx="1035.99" cy="394.17" r="39.47"/>
</g>
<g>
	<circle class="st1" cx="927.99" cy="394.17" r="39.47"/>
</g>
<g>
	<circle class="st1" cx="706" cy="485.17" r="39.47"/>
</g>
<g>
	<circle class="st1" cx="491.89" cy="485.17" r="39.47"/>
</g>
<g>
	<circle class="st1" cx="598.44" cy="485.17" r="39.47"/>
</g>
<g>
	<circle class="st1" cx="385.72" cy="485.17" r="39.47"/>
</g>
<g>
	<circle class="st1" cx="816" cy="485.17" r="39.47"/>
</g>
<g>
	<circle class="st1" cx="1035.99" cy="485.17" r="39.47"/>
</g>
<g>
	<circle class="st1" cx="927.99" cy="485.17" r="39.47"/>
</g>
<g>
	<circle class="st1" cx="706" cy="576.17" r="39.47"/>
</g>
<g>
	<circle class="st1" cx="491.89" cy="576.17" r="39.47"/>
</g>
<g>
	<circle class="st1" cx="598.44" cy="576.17" r="39.47"/>
</g>
<g>
	<circle class="st1" cx="385.72" cy="576.17" r="39.47"/>
</g>
<g>
	<circle class="st1" cx="816" cy="576.17" r="39.47"/>
</g>
<g>
	<circle class="st1" cx="1035.99" cy="576.17" r="39.47"/>
</g>
<g>
	<circle class="st1" cx="927.99" cy="576.17" r="39.47"/>
</g>
</svg>
